<svg xmlns="http://www.w3.org/2000/svg" xmlns:xlink="http://www.w3.org/1999/xlink" viewBox="0 0 170.2 215.51"><defs><style>.cls-1{fill:none;}.cls-2{fill:#fff;stroke:#000;stroke-miterlimit:10;}.cls-3{fill:#7c7c7c;}.cls-4{clip-path:url(#clip-path);}.cls-5{fill:#f20f0f;}</style><clipPath id="clip-path" transform="translate(-143.46 -49.81)"><ellipse class="cls-1" cx="226.18" cy="163.5" rx="15.45" ry="13.5"/></clipPath></defs><g id="ghost_body" data-name="ghost body"><path id="ghostBody" class="cls-2" d="M144,252.56s20-151,34-173c32-39,63-39,94,0,21,59,41.12,173,41.12,173s1.61,12.26-12.75,12.26-15.59-12.26-15.59-12.26-4.87,12.26-17.87,12.26-17.4-12.26-17.4-12.26-4.59,12.26-16.68,12.26-16.13-12.26-16.13-12.26-7,12.26-19.66,12.26-18.12-12.26-18.12-12.26-.15,12.26-18.29,12.26S144,252.56,144,252.56Z" transform="translate(-143.46 -49.81)"/></g><g id="Mouth"><ellipse cx="82.54" cy="108.69" rx="17" ry="18.5"/><ellipse class="cls-3" cx="82.54" cy="113.69" rx="15.45" ry="13.5"/><g class="cls-4"><ellipse class="cls-5" cx="81.84" cy="128.26" rx="15.45" ry="13.5"/></g></g><g id="Eyes"><ellipse cx="65.54" cy="55.69" rx="11" ry="18.5"/><ellipse cx="98.54" cy="54.69" rx="11" ry="18.5"/><ellipse class="cls-3" cx="98.54" cy="59.69" rx="10" ry="13.5"/><ellipse class="cls-3" cx="65.54" cy="60.69" rx="10" ry="13.5"/></g></svg>